<svg width="106" height="29" viewBox="0 0 106 29" fill="none"
     xmlns="http://www.w3.org/2000/svg">
  <path
    d="M12.2866 18.8879C12.1111 18.8879 11.9387 18.8418 11.7866 18.7541L2.78663 13.5569C2.30824 13.2806 2.14442 12.6687 2.42074 12.1904C2.5085 12.0384 2.63469 11.9122 2.78663 11.8245L11.7866 6.63111C12.0963 6.45337 12.477 6.45337 12.7866 6.63111L21.7866 11.8245C22.265 12.1008 22.4288 12.7126 22.1525 13.191C22.0648 13.3429 21.9386 13.4691 21.7866 13.5569L12.7866 18.7541C12.6346 18.8418 12.4621 18.8879 12.2866 18.8879Z"
    fill="#C1C0FF"/>
  <path
    d="M21.7866 15.8245L19.8225 14.6911L12.7866 18.7542C12.4772 18.9325 12.0961 18.9325 11.7866 18.7542L4.75074 14.6911L2.78663 15.8245C2.30824 16.1008 2.14442 16.7126 2.42074 17.191C2.5085 17.3429 2.63469 17.4691 2.78663 17.5569L11.7866 22.7542C12.0961 22.9325 12.4772 22.9325 12.7866 22.7542L21.7866 17.5569C22.265 17.2806 22.4288 16.6688 22.1525 16.1904C22.0648 16.0384 21.9386 15.9122 21.7866 15.8245Z"
    fill="#A2A1FF"/>
  <path
    d="M21.7866 19.8245L19.8225 18.6911L12.7866 22.7542C12.4772 22.9325 12.0961 22.9325 11.7866 22.7542L4.75074 18.6911L2.78663 19.8245C2.30824 20.1008 2.14442 20.7126 2.42074 21.191C2.5085 21.3429 2.63469 21.4691 2.78663 21.5569L11.7866 26.7542C12.0961 26.9325 12.4772 26.9325 12.7866 26.7542L21.7866 21.5569C22.265 21.2806 22.4288 20.6688 22.1525 20.1904C22.0648 20.0384 21.9386 19.9122 21.7866 19.8245Z"
    fill="#6563FF"/>
  <path
    d="M33.6726 21.6926V9.12863H39.6126C40.2006 9.12863 40.7286 9.23063 41.1966 9.43463C41.6646 9.62663 42.0606 9.89663 42.3846 10.2446C42.7206 10.5926 42.9786 11.0186 43.1586 11.5226C43.3386 12.0146 43.4286 12.5546 43.4286 13.1426C43.4286 13.7426 43.3386 14.2886 43.1586 14.7806C42.9786 15.2726 42.7206 15.6926 42.3846 16.0406C42.0606 16.3886 41.6646 16.6646 41.1966 16.8686C40.7286 17.0606 40.2006 17.1566 39.6126 17.1566H36.4086V21.6926H33.6726ZM36.4086 14.7806H39.2886C39.6966 14.7806 40.0146 14.6786 40.2426 14.4746C40.4826 14.2586 40.6026 13.9466 40.6026 13.5386V12.7466C40.6026 12.3386 40.4826 12.0326 40.2426 11.8286C40.0146 11.6126 39.6966 11.5046 39.2886 11.5046H36.4086V14.7806ZM47.9871 21.6926C47.0751 21.6926 46.4031 21.4706 45.9711 21.0266C45.5511 20.5826 45.3411 19.9406 45.3411 19.1006V8.37263H48.0051V19.6226H49.1931V21.6926H47.9871ZM57.7743 21.6926C57.2943 21.6926 56.8923 21.5426 56.5683 21.2426C56.2563 20.9426 56.0583 20.5406 55.9743 20.0366H55.8663C55.7223 20.6486 55.4043 21.1166 54.9123 21.4406C54.4203 21.7526 53.8143 21.9086 53.0943 21.9086C52.1463 21.9086 51.4203 21.6566 50.9163 21.1526C50.4123 20.6486 50.1603 19.9826 50.1603 19.1546C50.1603 18.1586 50.5203 17.4206 51.2403 16.9406C51.9723 16.4486 52.9623 16.2026 54.2103 16.2026H55.7043V15.6086C55.7043 15.1526 55.5843 14.7926 55.3443 14.5286C55.1043 14.2526 54.7023 14.1146 54.1383 14.1146C53.6103 14.1146 53.1903 14.2286 52.8783 14.4566C52.5663 14.6846 52.3083 14.9426 52.1043 15.2306L50.5203 13.8266C50.9043 13.2626 51.3843 12.8246 51.9603 12.5126C52.5483 12.1886 53.3403 12.0266 54.3363 12.0266C55.6803 12.0266 56.6883 12.3206 57.3603 12.9086C58.0323 13.4966 58.3683 14.3546 58.3683 15.4826V19.6226H59.2503V21.6926H57.7743ZM54.0843 20.0546C54.5283 20.0546 54.9063 19.9586 55.2183 19.7666C55.5423 19.5746 55.7043 19.2626 55.7043 18.8306V17.7146H54.4083C53.3643 17.7146 52.8423 18.0686 52.8423 18.7766V19.0466C52.8423 19.3946 52.9503 19.6526 53.1663 19.8206C53.3823 19.9766 53.6883 20.0546 54.0843 20.0546ZM61.0384 21.6926V12.2426H63.7024V13.8446H63.8104C63.9784 13.3526 64.2724 12.9266 64.6924 12.5666C65.1124 12.2066 65.6944 12.0266 66.4384 12.0266C67.4104 12.0266 68.1424 12.3506 68.6344 12.9986C69.1384 13.6466 69.3904 14.5706 69.3904 15.7706V21.6926H66.7264V15.9866C66.7264 15.3746 66.6304 14.9246 66.4384 14.6366C66.2464 14.3366 65.9044 14.1866 65.4124 14.1866C65.1964 14.1866 64.9864 14.2166 64.7824 14.2766C64.5784 14.3246 64.3924 14.4086 64.2244 14.5286C64.0684 14.6486 63.9424 14.7986 63.8464 14.9786C63.7504 15.1466 63.7024 15.3446 63.7024 15.5726V21.6926H61.0384ZM75.073 21.6926C74.149 21.6926 73.447 21.4586 72.967 20.9906C72.499 20.5226 72.265 19.8386 72.265 18.9386V14.3126H70.933V12.2426H71.599C71.959 12.2426 72.205 12.1586 72.337 11.9906C72.469 11.8106 72.535 11.5586 72.535 11.2346V9.68663H74.929V12.2426H76.801V14.3126H74.929V19.6226H76.657V21.6926H75.073ZM78.1879 17.4986V14.9066H83.5339V17.4986H78.1879ZM84.8487 21.6926V19.5146H86.4687V11.3066H84.8487V9.12863H90.8247V11.3066H89.2047V19.5146H90.8247V21.6926H84.8487ZM101.474 25.0046H99.7823C98.8103 25.0046 98.1023 24.7766 97.6583 24.3206C97.2143 23.8646 96.9923 23.2046 96.9923 22.3406V21.8186C95.6483 21.5786 94.5803 20.9246 93.7883 19.8566C93.0083 18.7766 92.6183 17.2946 92.6183 15.4106C92.6183 14.3426 92.7503 13.4066 93.0143 12.6026C93.2783 11.7866 93.6503 11.1086 94.1303 10.5686C94.6103 10.0166 95.1923 9.60263 95.8763 9.32663C96.5603 9.05063 97.3163 8.91263 98.1443 8.91263C98.9723 8.91263 99.7283 9.05063 100.412 9.32663C101.096 9.60263 101.678 10.0166 102.158 10.5686C102.638 11.1086 103.01 11.7866 103.274 12.6026C103.538 13.4066 103.67 14.3426 103.67 15.4106C103.67 17.2346 103.298 18.6806 102.554 19.7486C101.822 20.8166 100.82 21.4886 99.5483 21.7646V22.7726H101.474V25.0046ZM98.1443 19.4786C98.9723 19.4786 99.6143 19.2086 100.07 18.6686C100.538 18.1286 100.772 17.3546 100.772 16.3466V14.4746C100.772 13.4666 100.538 12.6926 100.07 12.1526C99.6143 11.6126 98.9723 11.3426 98.1443 11.3426C97.3163 11.3426 96.6683 11.6126 96.2003 12.1526C95.7443 12.6926 95.5163 13.4666 95.5163 14.4746V16.3466C95.5163 17.3546 95.7443 18.1286 96.2003 18.6686C96.6683 19.2086 97.3163 19.4786 98.1443 19.4786Z"
    fill="white"/>
</svg>
